<?xml version="1.0" ?><!DOCTYPE svg  PUBLIC '-//W3C//DTD SVG 1.1//EN'  'http://www.w3.org/Graphics/SVG/1.1/DTD/svg11.dtd'><svg enable-background="new 0 0 128 128" id="Слой_1" version="1.1" viewBox="0 0 128 128" xml:space="preserve" xmlns="http://www.w3.org/2000/svg" xmlns:xlink="http://www.w3.org/1999/xlink"><g><g><g><g><path d="M52,115.5c-0.8,0-1.5-0.7-1.5-1.5V95.5h-32V114c0,0.8-0.7,1.5-1.5,1.5s-1.5-0.7-1.5-1.5V94      c0-0.8,0.7-1.5,1.5-1.5h35c0.8,0,1.5,0.7,1.5,1.5v20C53.5,114.8,52.8,115.5,52,115.5z" fill="#62355C"/></g></g></g><g><g><g><path d="M94,95.5c-0.8,0-1.5-0.7-1.5-1.5V75.5h-57V94c0,0.8-0.7,1.5-1.5,1.5s-1.5-0.7-1.5-1.5V74      c0-0.8,0.7-1.5,1.5-1.5h60c0.8,0,1.5,0.7,1.5,1.5v20C95.5,94.8,94.8,95.5,94,95.5z" fill="#62355C"/></g></g></g><g><g><g><path d="M111,115.5c-0.8,0-1.5-0.7-1.5-1.5V95.5h-32V114c0,0.8-0.7,1.5-1.5,1.5s-1.5-0.7-1.5-1.5V94      c0-0.8,0.7-1.5,1.5-1.5h35c0.8,0,1.5,0.7,1.5,1.5v20C112.5,114.8,111.8,115.5,111,115.5z" fill="#62355C"/></g></g></g><g><g><g><path d="M64,75.4c-0.8,0-1.5-0.7-1.5-1.5v-21c0-0.8,0.7-1.5,1.5-1.5s1.5,0.7,1.5,1.5v21      C65.5,74.7,64.8,75.4,64,75.4z" fill="#62355C"/></g></g></g><g><g><g><path d="M86.1,23H71.9c-0.9,0-1.6-0.6-1.9-1.4l-4-12.7c-0.6-1.9-3.2-1.9-3.8,0l-4,12.7c-0.3,0.8-1,1.4-1.9,1.4      H41.9c-1.8,0-2.7,2.3-1.3,3.5l11.5,10c0.6,0.5,0.8,1.4,0.6,2.1l-3.5,11.1c-0.6,1.8,1.5,3.3,3.1,2.2l10.7-7.6      c0.7-0.5,1.6-0.5,2.3,0l10.7,7.6c1.6,1.1,3.6-0.4,3.1-2.2l-3.6-11.1c-0.2-0.8,0-1.6,0.6-2.1l11.5-10C88.8,25.3,88,23,86.1,23z" fill="#FEE444"/></g></g></g><g><g><g><g><path d="M59,39.4l-11.5-10C46.2,28.3,47,26,48.9,26h14.4c0.9,0,1.6-0.6,1.9-1.4l2.9-9.2l-2.1-6.5       c-0.6-1.9-3.2-1.9-3.8,0l-4,12.7c-0.3,0.8-1,1.4-1.9,1.4H41.9c-1.8,0-2.7,2.3-1.3,3.5l11.5,10c0.6,0.5,0.8,1.4,0.6,2.1       l-3.5,11.1c-0.6,1.8,1.5,3.3,3.1,2.2l5.4-3.8l2.1-6.5C59.8,40.8,59.6,40,59,39.4z" fill="#FFFFFF"/></g></g></g></g><g><g><g><path d="M51,53.8c-1.1,0-2.2-0.5-2.8-1.5c-0.7-0.9-0.8-2-0.5-3.1l3.5-11.1c0.1-0.2,0-0.4-0.1-0.5l-11.5-10      c-1.1-1-1.5-2.5-1-3.9c0.5-1.4,1.8-2.3,3.3-2.3h14.4c0.2,0,0.4-0.1,0.5-0.3l4-12.7C61.1,7,62.5,6,64,6c1.6,0,2.9,1,3.3,2.4      l4,12.7c0.1,0.2,0.3,0.3,0.5,0.3h14.3c1.5,0,2.8,0.9,3.3,2.3c0.5,1.4,0.1,2.9-1,3.9l-11.5,10c-0.2,0.1-0.2,0.3-0.1,0.5l3.6,11.1      c0.3,1.1,0.2,2.2-0.5,3.1c-0.7,0.9-1.7,1.5-2.8,1.5l0,0c-0.7,0-1.4-0.2-2-0.7l-10.7-7.6c-0.2-0.2-0.4-0.2-0.6,0L53,53.1      C52.4,53.5,51.7,53.8,51,53.8z M41.8,24.5c-0.3,0-0.4,0.2-0.5,0.3c-0.1,0.1-0.1,0.4,0.1,0.6l11.5,10c1.1,0.9,1.5,2.4,1,3.7      l-3.5,11.1c-0.1,0.2,0,0.3,0.1,0.4c0.2,0.2,0.5,0.3,0.7,0.1L62,43.1c1.2-0.8,2.9-0.8,4.1,0l10.7,7.6c0.1,0.1,0.2,0.1,0.3,0.1      l0,0c0.2,0,0.3-0.1,0.4-0.2c0.1-0.1,0.1-0.3,0.1-0.4L73.9,39c-0.4-1.3,0-2.8,1-3.7l11.5-10c0.2-0.2,0.2-0.4,0.1-0.6      c-0.1-0.1-0.2-0.3-0.5-0.3H71.9c-1.5,0-2.9-1-3.3-2.4l-4-12.7C64.4,9.1,64.2,9,64,9c-0.2,0-0.4,0.1-0.5,0.3l-4,12.7      c-0.5,1.5-1.8,2.4-3.3,2.4H41.8z" fill="#62355C"/></g></g></g></g></svg>